<!--?xml version="1.0" standalone="no"?-->
              <svg id="sw-js-blob-svg" viewBox="0 0 100 100" xmlns="http://www.w3.org/2000/svg" version="1.1">
                    <defs> 
                        <linearGradient id="sw-gradient" x1="0" x2="1" y1="1" y2="0">
                            <stop id="stop1" stop-color="rgba(248, 117, 55, 1)" offset="0%"></stop>
                            <stop id="stop2" stop-color="rgba(251, 168, 31, 1)" offset="100%"></stop>
                        </linearGradient>
                    </defs>
                <path fill="url(#sw-gradient)" d="M9.4,-15.5C15.5,-12.8,26,-16.9,25.7,-15.5C25.4,-14.1,14.3,-7,9.7,-2.7C5,1.6,6.8,3.3,8,6.3C9.1,9.3,9.7,13.6,8.3,14.5C6.9,15.5,3.4,13.1,-2.1,16.8C-7.7,20.4,-15.4,30.2,-21.9,32.1C-28.4,34.1,-33.6,28.3,-35,21.6C-36.3,15,-33.6,7.5,-33.3,0.2C-32.9,-7.1,-34.9,-14.2,-31.2,-16.7C-27.4,-19.1,-18,-17,-11.9,-19.7C-5.7,-22.3,-2.9,-29.8,-0.6,-28.8C1.7,-27.7,3.3,-18.2,9.4,-15.5Z" width="100%" height="100%" transform="translate(50 50)" stroke-width="0" style="transition: all 0.3s ease 0s;"></path>
              </svg>