<svg viewBox="0 0 800 500" preserveAspectRatio="none" xmlns="http://www.w3.org/2000/svg" xmlns:xlink="http://www.w3.org/1999/xlink" width="100%" id="blobSvg">
  <g transform="translate(-211, 241)">
    <path class="blob" d="M316,349.5Q135,449,133,246.5Q131,44,314,147Q497,250,316,349.5Z" fill="#f18e38"></path>
  </g>
  <g transform="translate(289, 240)">
    <path class="blob" d="M316,349.5Q135,449,133,246.5Q131,44,314,147Q497,250,316,349.5Z" fill="#f18e38"></path>
  </g>
  <g transform="translate(18, -245)">
    <path class="blob" d="M316,349.5Q135,449,133,246.5Q131,44,314,147Q497,250,316,349.5Z" fill="#f18e38"></path>
  </g>
  <g transform="translate(-395, -39)">
    <path class="blob" d="M316,349.5Q135,449,133,246.5Q131,44,314,147Q497,250,316,349.5Z" fill="#f18e38"></path>
  </g>
</svg>