<svg width="54" height="52" viewBox="0 0 54 52" fill="none" xmlns="http://www.w3.org/2000/svg">
<path d="M26.52 22.2766C30.8774 22.2766 34.4097 18.7888 34.4097 14.4864C34.4097 10.184 30.8774 6.69616 26.52 6.69616C22.1626 6.69616 18.6303 10.184 18.6303 14.4864C18.6303 18.7888 22.1626 22.2766 26.52 22.2766Z" fill="black"/>
<path d="M14.5529 15.2654H15.3485C15.3485 15.0168 15.3485 14.8013 15.3485 14.5527C15.3533 12.4802 15.938 10.4503 17.0365 8.69281C18.1349 6.9353 19.7032 5.52024 21.5641 4.60771C21.0132 3.339 20.129 2.24318 19.0053 1.43664C17.8816 0.630109 16.5605 0.142974 15.1822 0.0269787C13.8039 -0.0890169 12.42 0.170458 11.1773 0.777844C9.93466 1.38523 8.87971 2.31785 8.12452 3.47664C7.36933 4.63544 6.9421 5.97714 6.8882 7.35924C6.8343 8.74134 7.15575 10.1122 7.8184 11.3263C8.48106 12.5404 9.46017 13.5524 10.6518 14.2547C11.8433 14.957 13.2029 15.3235 14.586 15.3151L14.5529 15.2654Z" fill="black"/>
<path d="M37.7247 14.4864V15.1991H38.5203C39.885 15.1854 41.2208 14.8041 42.3871 14.0952C43.5533 13.3863 44.5069 12.3762 45.1474 11.1711C45.788 9.96595 46.0918 8.61043 46.0269 7.2472C45.962 5.88396 45.5308 4.56343 44.7787 3.4246C44.0265 2.28578 42.9813 1.37077 41.753 0.775897C40.5247 0.181025 39.1587 -0.0717121 37.7989 0.0442892C36.4391 0.160291 35.1356 0.640739 34.0258 1.43507C32.916 2.22939 32.0409 3.30821 31.4925 4.55798C33.3539 5.46694 34.924 6.87842 36.0253 8.6329C37.1266 10.3874 37.7153 12.4149 37.7247 14.4864V14.4864Z" fill="black"/>
<path d="M33.6306 23.0557C36.9262 23.708 40.1127 24.8241 43.095 26.3707C43.5151 26.6015 43.8956 26.898 44.2221 27.2491H53.0399V21.5805C53.0416 21.3631 52.9837 21.1493 52.8727 20.9624C52.7617 20.7754 52.6018 20.6224 52.4101 20.5197C48.1141 18.2727 43.3352 17.1064 38.4871 17.1218H37.3932C36.8187 19.4568 35.4976 21.5403 33.6306 23.0557V23.0557Z" fill="black"/>
<path d="M7.5085 30.4647C7.50547 29.6299 7.73091 28.8102 8.16039 28.0944C8.58988 27.3786 9.20704 26.794 9.94502 26.4038C12.9273 24.8572 16.1138 23.7411 19.4093 23.0888C17.5514 21.5863 16.2311 19.5216 15.6468 17.2047H14.5529C9.70473 17.1893 4.92587 18.3555 0.629882 20.6026C0.438223 20.7052 0.278253 20.8583 0.167249 21.0453C0.0562451 21.2322 -0.00157516 21.4459 3.26391e-05 21.6634V32.2548H7.5085V30.4647Z" fill="black"/>
<path d="M32.2549 40.0284H42.1336V42.3489H32.2549V40.0284Z" fill="black"/>
<path d="M51.0675 31.0282H39.6805V29.3707C39.6805 28.9311 39.5059 28.5095 39.1951 28.1987C38.8842 27.8879 38.4626 27.7132 38.023 27.7132C37.5834 27.7132 37.1618 27.8879 36.851 28.1987C36.5402 28.5095 36.3655 28.9311 36.3655 29.3707V31.0282H33.15V26.3375C30.9693 25.8796 28.7482 25.6408 26.52 25.6248C21.2885 25.603 16.1318 26.8666 11.5031 29.3044C11.2969 29.4114 11.1243 29.5733 11.0044 29.7722C10.8844 29.9711 10.8218 30.1993 10.8235 30.4315V39.7301H22.6083V49.8242C22.6083 50.2638 22.7829 50.6854 23.0938 50.9963C23.4046 51.3071 23.8262 51.4817 24.2658 51.4817H51.0675C51.5071 51.4817 51.9287 51.3071 52.2396 50.9963C52.5504 50.6854 52.725 50.2638 52.725 49.8242V32.6857C52.725 32.2461 52.5504 31.8245 52.2396 31.5137C51.9287 31.2029 51.5071 31.0282 51.0675 31.0282V31.0282ZM49.41 48.1999H25.9233V34.3432H36.3655V35.8515C36.3655 36.2911 36.5402 36.7127 36.851 37.0236C37.1618 37.3344 37.5834 37.509 38.023 37.509C38.4626 37.509 38.8842 37.3344 39.1951 37.0236C39.5059 36.7127 39.6805 36.2911 39.6805 35.8515V34.3432H49.41V48.1999Z" fill="black"/>
</svg>
