<svg width="1920" height="1080" viewBox="0 0 1920 1080" xmlns="http://www.w3.org/2000/svg"><rect width="1920" height="1080" fill="#2c2c2b"/><path d="M809,52.999999999999886C840.6299510555586,155.86865927619044,718.019052838329,170.88773439303674,649.519052838329,261.2119556571431C581.019052838329,351.5361769212495,497.2531754730549,529.6408952079637,398.00000000000006,594.9453275846382C298.7468245269452,660.2497599613127,179.00000000000003,638.7762623749081,54.00000000000004,653.0385499171899C-70.99999999999994,667.3008374594717,-240.24682452694503,730.8168769825329,-351.99999999999983,680.519052838329C-463.7531754730546,630.2212286941251,-558.6857195049955,461.33811385835475,-616.5190528383289,351.2516050519666C-674.3523861716623,241.1650962455784,-702.1291614952164,131.20860084199447,-699,20.00000000000006C-695.8708385047836,-91.20860084199434,-656.0774172003638,-206.74682452694492,-597.7440838670306,-315.9999999999998C-539.4107505336973,-425.2531754730546,-453.12401397783873,-566.1857195049955,-349.00000000000034,-635.5190528383289C-244.87598602216195,-704.8523861716623,-65.60362215241469,-768.0759334557929,26.99999999999988,-732C119.60362215241443,-695.9240665442071,134.49850849699072,-481.730118770238,206.62173291448698,-419.06345210357136C278.74495733198324,-356.39678543690474,359.3429686573919,-434.6772420172622,459.7393465049774,-356.00000000000034C560.1357243525629,-277.3227579827385,777.3700489444414,-49.868659276190684,809,52.999999999999886C840.6299510555586,155.86865927619044,718.019052838329,170.88773439303674,649.519052838329,261.2119556571431" fill="#f18e38"/></svg>